<?xml version="1.0" standalone="no"?>
<!DOCTYPE svg PUBLIC "-//W3C//DTD SVG 20010904//EN"
 "http://www.w3.org/TR/2001/REC-SVG-20010904/DTD/svg10.dtd">
<svg version="1.0" xmlns="http://www.w3.org/2000/svg"
 width="512.000000pt" height="512.000000pt" viewBox="0 0 512.000000 512.000000"
 preserveAspectRatio="xMidYMid meet">
<metadata>
Created by potrace 1.14, written by Peter Selinger 2001-2017
</metadata>
<g transform="translate(0.000000,512.000000) scale(0.100000,-0.100000)"
fill="#000000" stroke="none">
<path d="M3558 3995 c-2 -2 -30 -5 -63 -8 -185 -18 -367 -79 -560 -187 -145
-81 -333 -252 -439 -400 -90 -125 -196 -344 -222 -460 -6 -25 -19 -84 -29
-130 -10 -47 -19 -165 -19 -255 1 -235 47 -432 151 -640 212 -427 623 -717
1103 -781 72 -9 247 -10 336 -1 254 24 526 135 734 298 84 66 211 200 280 297
92 129 187 332 220 472 6 25 12 52 14 60 9 38 26 171 28 230 l3 65 -717 3
-717 2 123 213 c68 116 185 320 261 452 76 132 183 316 237 410 l98 170 -53
27 c-129 67 -311 126 -461 148 -66 10 -301 21 -308 15z"/>
<path d="M25 2488 c-1 -744 2 -1355 6 -1358 4 -3 479 -5 1056 -5 l1048 0 1
678 c1 615 0 677 -15 678 -9 0 -177 1 -373 1 -250 1 -358 4 -359 12 -1 6 -2
310 -3 676 l-1 665 -680 3 -680 2 0 -1352z"/>
</g>
</svg>
